<svg width="130" height="37" viewBox="0 0 130 37" fill="none" xmlns="http://www.w3.org/2000/svg">
<path d="M18.8023 27.3621C18.8023 19.6619 23.3903 7.64453 18.8023 7.64453C14.2144 7.64453 10.391 27.3621 6.18539 27.3621C1.97975 27.3621 6.18539 7.64453 6.18539 7.64453" stroke="#2F1893" stroke-width="2"/>
<path d="M15 31C15 33.3109 16.6635 35 18.5 35C20.3365 35 22 33.3109 22 31C22 28.6891 20.3365 27 18.5 27C16.6635 27 15 28.6891 15 31Z" stroke="#2F1893" stroke-width="2"/>
<circle cx="4.5" cy="4.5" r="3.5" transform="matrix(-1 0 0 1 11 0)" stroke="#2F1893" stroke-width="2"/>
<path d="M39.194 21.624H43.226V24H36.116V11.364H39.194V21.624ZM44.0821 18.96C44.0821 17.928 44.2741 17.022 44.6581 16.242C45.0541 15.462 45.5881 14.862 46.2601 14.442C46.9321 14.022 47.6821 13.812 48.5101 13.812C49.2181 13.812 49.8361 13.956 50.3641 14.244C50.9041 14.532 51.3181 14.91 51.6061 15.378V13.956H54.6841V24H51.6061V22.578C51.3061 23.046 50.8861 23.424 50.3461 23.712C49.8181 24 49.2001 24.144 48.4921 24.144C47.6761 24.144 46.9321 23.934 46.2601 23.514C45.5881 23.082 45.0541 22.476 44.6581 21.696C44.2741 20.904 44.0821 19.992 44.0821 18.96ZM51.6061 18.978C51.6061 18.21 51.3901 17.604 50.9581 17.16C50.5381 16.716 50.0221 16.494 49.4101 16.494C48.7981 16.494 48.2761 16.716 47.8441 17.16C47.4241 17.592 47.2141 18.192 47.2141 18.96C47.2141 19.728 47.4241 20.34 47.8441 20.796C48.2761 21.24 48.7981 21.462 49.4101 21.462C50.0221 21.462 50.5381 21.24 50.9581 20.796C51.3901 20.352 51.6061 19.746 51.6061 18.978ZM63.0309 13.848C64.2069 13.848 65.1429 14.232 65.8389 15C66.5469 15.756 66.9009 16.8 66.9009 18.132V24H63.8409V18.546C63.8409 17.874 63.6669 17.352 63.3189 16.98C62.9709 16.608 62.5029 16.422 61.9149 16.422C61.3269 16.422 60.8589 16.608 60.5109 16.98C60.1629 17.352 59.9889 17.874 59.9889 18.546V24H56.9109V13.956H59.9889V15.288C60.3009 14.844 60.7209 14.496 61.2489 14.244C61.7769 13.98 62.3709 13.848 63.0309 13.848ZM68.4278 18.96C68.4278 17.928 68.6198 17.022 69.0038 16.242C69.3998 15.462 69.9338 14.862 70.6058 14.442C71.2778 14.022 72.0278 13.812 72.8558 13.812C73.5158 13.812 74.1158 13.95 74.6558 14.226C75.2078 14.502 75.6398 14.874 75.9518 15.342V10.68H79.0298V24H75.9518V22.56C75.6638 23.04 75.2498 23.424 74.7098 23.712C74.1818 24 73.5638 24.144 72.8558 24.144C72.0278 24.144 71.2778 23.934 70.6058 23.514C69.9338 23.082 69.3998 22.476 69.0038 21.696C68.6198 20.904 68.4278 19.992 68.4278 18.96ZM75.9518 18.978C75.9518 18.21 75.7358 17.604 75.3038 17.16C74.8838 16.716 74.3678 16.494 73.7558 16.494C73.1438 16.494 72.6218 16.716 72.1898 17.16C71.7698 17.592 71.5598 18.192 71.5598 18.96C71.5598 19.728 71.7698 20.34 72.1898 20.796C72.6218 21.24 73.1438 21.462 73.7558 21.462C74.3678 21.462 74.8838 21.24 75.3038 20.796C75.7358 20.352 75.9518 19.746 75.9518 18.978ZM82.8046 12.912C82.2646 12.912 81.8206 12.756 81.4726 12.444C81.1366 12.12 80.9686 11.724 80.9686 11.256C80.9686 10.776 81.1366 10.38 81.4726 10.068C81.8206 9.744 82.2646 9.582 82.8046 9.582C83.3326 9.582 83.7646 9.744 84.1006 10.068C84.4486 10.38 84.6226 10.776 84.6226 11.256C84.6226 11.724 84.4486 12.12 84.1006 12.444C83.7646 12.756 83.3326 12.912 82.8046 12.912ZM84.3346 13.956V24H81.2566V13.956H84.3346ZM92.6852 13.848C93.8612 13.848 94.7972 14.232 95.4932 15C96.2012 15.756 96.5552 16.8 96.5552 18.132V24H93.4952V18.546C93.4952 17.874 93.3212 17.352 92.9732 16.98C92.6252 16.608 92.1572 16.422 91.5692 16.422C90.9812 16.422 90.5132 16.608 90.1652 16.98C89.8172 17.352 89.6432 17.874 89.6432 18.546V24H86.5652V13.956H89.6432V15.288C89.9552 14.844 90.3752 14.496 90.9032 14.244C91.4312 13.98 92.0252 13.848 92.6852 13.848ZM102.51 13.812C103.218 13.812 103.836 13.956 104.364 14.244C104.904 14.532 105.318 14.91 105.606 15.378V13.956H108.684V23.982C108.684 24.906 108.498 25.74 108.126 26.484C107.766 27.24 107.208 27.84 106.452 28.284C105.708 28.728 104.778 28.95 103.662 28.95C102.174 28.95 100.968 28.596 100.044 27.888C99.1201 27.192 98.5921 26.244 98.4601 25.044H101.502C101.598 25.428 101.826 25.728 102.186 25.944C102.546 26.172 102.99 26.286 103.518 26.286C104.154 26.286 104.658 26.1 105.03 25.728C105.414 25.368 105.606 24.786 105.606 23.982V22.56C105.306 23.028 104.892 23.412 104.364 23.712C103.836 24 103.218 24.144 102.51 24.144C101.682 24.144 100.932 23.934 100.26 23.514C99.5881 23.082 99.0541 22.476 98.6581 21.696C98.2741 20.904 98.0821 19.992 98.0821 18.96C98.0821 17.928 98.2741 17.022 98.6581 16.242C99.0541 15.462 99.5881 14.862 100.26 14.442C100.932 14.022 101.682 13.812 102.51 13.812ZM105.606 18.978C105.606 18.21 105.39 17.604 104.958 17.16C104.538 16.716 104.022 16.494 103.41 16.494C102.798 16.494 102.276 16.716 101.844 17.16C101.424 17.592 101.214 18.192 101.214 18.96C101.214 19.728 101.424 20.34 101.844 20.796C102.276 21.24 102.798 21.462 103.41 21.462C104.022 21.462 104.538 21.24 104.958 20.796C105.39 20.352 105.606 19.746 105.606 18.978ZM112.459 12.912C111.919 12.912 111.475 12.756 111.127 12.444C110.791 12.12 110.623 11.724 110.623 11.256C110.623 10.776 110.791 10.38 111.127 10.068C111.475 9.744 111.919 9.582 112.459 9.582C112.987 9.582 113.419 9.744 113.755 10.068C114.103 10.38 114.277 10.776 114.277 11.256C114.277 11.724 114.103 12.12 113.755 12.444C113.419 12.756 112.987 12.912 112.459 12.912ZM113.989 13.956V24H110.911V13.956H113.989ZM122.34 13.848C123.516 13.848 124.452 14.232 125.148 15C125.856 15.756 126.21 16.8 126.21 18.132V24H123.15V18.546C123.15 17.874 122.976 17.352 122.628 16.98C122.28 16.608 121.812 16.422 121.224 16.422C120.636 16.422 120.168 16.608 119.82 16.98C119.472 17.352 119.298 17.874 119.298 18.546V24H116.22V13.956H119.298V15.288C119.61 14.844 120.03 14.496 120.558 14.244C121.086 13.98 121.68 13.848 122.34 13.848Z" fill="#2F1893"/>
</svg>
