<svg width="130" height="125" viewBox="0 0 130 125" fill="none" xmlns="http://www.w3.org/2000/svg">
<rect x="3" y="3" width="123" height="119" rx="20" fill="#2E1892" fill-opacity="0.87451"/>
<path d="M84.4075 93.6011C84.4075 68.6671 99.2639 29.7537 84.4075 29.7537C69.5512 29.7537 57.171 93.6011 43.5527 93.6011C29.9344 93.6011 43.5527 29.7537 43.5527 29.7537" stroke="white" stroke-width="5"/>
<path d="M71.5 104C71.5 110.984 76.9518 116.5 83.5 116.5C90.0482 116.5 95.5 110.984 95.5 104C95.5 97.0159 90.0482 91.5 83.5 91.5C76.9518 91.5 71.5 97.0159 71.5 104Z" stroke="white" stroke-width="5"/>
<circle cx="14.5" cy="14.5" r="12" transform="matrix(-1 0 0 1 59 5)" stroke="white" stroke-width="5"/>
</svg>
